<svg class="only-on-laptop" width="100%" viewBox="0 0 600 100" xmlns="http://www.w3.org/2000/svg"><defs><linearGradient x1="56.021%" y1="0%" x2="43.956%" y2="0%" id="a"><stop stop-color="#FFF" offset="0%"/><stop stop-color="#AFAFAF" offset="50.149%"/><stop stop-color="#FFF" offset="100%"/></linearGradient><linearGradient x1="50%" y1="0%" x2="50%" y2="100%" id="b"><stop offset="0%"/><stop stop-color="#868585" offset="100%"/></linearGradient></defs><g fill="none" fill-rule="evenodd"><circle stroke="url(#a)" cx="288" cy="2418" r="2344"/><path fill="#A7B2BF" d="M134.395 50.962l-3.651 6.61 2.892-6.976-7.445 1.267 7.258-2.088-5.633-5.031 6.158 4.372.421-7.54.421 7.54 6.159-4.372-5.633 5.03 7.258 2.09-7.446-1.268 2.892 6.977z"/><path fill="#979797" d="M134.962 51.335l-.757 4.005-.277-4.042-3.414 1.962 2.82-2.843-3.5-1.558 3.794.498-.95-3.906 1.91 3.463 2.314-3.312-1.41 3.821 3.836-.224-3.67 1.302 2.47 3.032z"/><path fill="#A7B2BF" d="M214.097 59.462l-3.652 6.61 2.893-6.976-7.446 1.267 7.258-2.088-5.633-5.031 6.158 4.372.422-7.54.421 7.54 6.158-4.372-5.633 5.03 7.258 2.09-7.445-1.268 2.892 6.977z"/><path fill="#979797" d="M214.663 59.835l-.757 4.005-.277-4.042-3.413 1.962 2.82-2.843-3.5-1.558 3.793.498-.95-3.906 1.91 3.463 2.315-3.312-1.411 3.821 3.836-.224L215.36 59l2.47 3.032z"/><path fill="#A7B2BF" d="M214.101 33.1l-1.933 3.5 1.531-3.694-3.942.67 3.843-1.105-2.982-2.664 3.26 2.315.223-3.992.223 3.992 3.26-2.315-2.982 2.664 3.843 1.106-3.942-.671 1.531 3.693z"/><path fill="#979797" d="M214.401 33.297l-.4 2.12-.147-2.14-1.807 1.04 1.492-1.506-1.852-.825 2.008.264-.503-2.068 1.011 1.833 1.225-1.753-.747 2.023 2.031-.12-1.943.69 1.308 1.605z"/><path fill="#A7B2BF" d="M160.46 20.6l-1.933 3.5 1.53-3.694-3.94.67 3.842-1.105-2.982-2.664 3.26 2.315.223-3.992.223 3.992 3.26-2.315-2.982 2.664 3.842 1.106-3.941-.671 1.53 3.693z"/><path fill="#979797" d="M160.76 20.797l-.4 2.12-.148-2.14-1.807 1.04 1.493-1.506-1.853-.825 2.009.264-.504-2.068 1.012 1.833 1.225-1.753-.747 2.023 2.031-.12-1.943.69 1.308 1.605z"/><g><path fill="#A7B2BF" d="M185.268 25.769l-5.28 9.558 4.182-10.087-10.764 1.833 10.493-3.02-8.143-7.273 8.903 6.32.609-10.901.609 10.902 8.903-6.321-8.144 7.273 10.493 3.02-10.764-1.833 4.182 10.087z"/><path fill="#979797" d="M186.087 26.308l-1.094 5.79-.401-5.843-4.935 2.837 4.077-4.11-5.06-2.252 5.485.719-1.374-5.646 2.762 5.006 3.345-4.788-2.04 5.524 5.547-.325-5.306 1.882 3.57 4.384z"/></g><path d="M140.754 40.862l15.21-16.322M194.461 33.04l15.145 19.092" stroke="#D9E6EC" stroke-linecap="round" stroke-linejoin="round"/><g><path fill="#A7B2BF" d="M350.218 17.052l-3.652 6.611 2.893-6.977-7.446 1.267 7.258-2.088-5.633-5.031 6.158 4.372.422-7.54.42 7.54 6.16-4.372-5.634 5.03 7.258 2.09-7.445-1.268 2.892 6.977z"/><path fill="#979797" d="M350.784 17.425l-.757 4.005-.277-4.042-3.413 1.962 2.82-2.842-3.5-1.559 3.793.498-.95-3.906 1.91 3.463 2.315-3.312-1.411 3.821 3.836-.224-3.67 1.302 2.47 3.032z"/><path fill="#A7B2BF" d="M363.222 38.01l-1.933 3.5 1.531-3.694-3.942.67 3.843-1.105-2.982-2.664 3.26 2.315.223-3.992.223 3.992 3.26-2.315-2.982 2.664 3.843 1.105-3.942-.67 1.531 3.693z"/><path fill="#979797" d="M363.522 38.207l-.4 2.12-.147-2.14-1.807 1.039 1.492-1.505-1.852-.825 2.008.263-.503-2.067 1.011 1.833 1.225-1.753-.747 2.023 2.031-.12-1.943.69 1.308 1.605z"/><path fill="#A7B2BF" d="M323.886 16.6l-1.933 3.5 1.53-3.694-3.941.67 3.842-1.105-2.982-2.664 3.26 2.315.224-3.992.223 3.992 3.26-2.315-2.982 2.664 3.842 1.106-3.942-.671 1.532 3.693z"/><path fill="#979797" d="M324.186 16.797l-.401 2.12-.147-2.14-1.807 1.04 1.493-1.506-1.853-.825 2.008.264-.503-2.068 1.012 1.833 1.225-1.753-.747 2.023 2.03-.12-1.942.69 1.307 1.605z"/><path fill="#A7B2BF" d="M399.053 55.01l-1.933 3.5 1.531-3.694-3.942.67 3.843-1.105-2.982-2.664 3.26 2.315.223-3.992.223 3.992 3.26-2.315-2.982 2.664 3.842 1.105-3.941-.67 1.531 3.693z"/><path fill="#979797" d="M399.353 55.207l-.4 2.12-.148-2.14-1.807 1.039 1.493-1.505-1.852-.825 2.008.263-.503-2.067 1.011 1.833 1.225-1.753-.747 2.023 2.031-.12-1.943.69 1.308 1.605z"/><g><path fill="#A7B2BF" d="M275.275 51.179l-5.279 9.558 4.182-10.087-10.764 1.833 10.493-3.02-8.144-7.273 8.903 6.32.61-10.901.608 10.902 8.903-6.321-8.143 7.273 10.493 3.02-10.764-1.833 4.181 10.087z"/><path fill="#979797" d="M276.094 51.718L275 57.508l-.4-5.843-4.935 2.837 4.076-4.11-5.059-2.252 5.484.719-1.374-5.647 2.762 5.007 3.346-4.788-2.04 5.524 5.546-.325-5.306 1.882 3.57 4.384z"/></g><path d="M284.469 45.082l57.333-22.642M288 50.075L394.558 54.5" stroke="#D9E6EC" stroke-linecap="round" stroke-linejoin="round"/></g><g><path fill="#A7B2BF" d="M442.949 33.51l-1.933 3.5 1.531-3.694-3.942.67 3.843-1.105-2.982-2.664 3.26 2.315.223-3.992.223 3.992 3.26-2.315-2.982 2.664 3.843 1.105-3.942-.67 1.531 3.693z"/><path fill="#979797" d="M443.249 33.707l-.4 2.12-.147-2.14-1.808 1.039 1.493-1.505-1.852-.825 2.008.263-.503-2.067 1.011 1.833 1.225-1.753-.747 2.023 2.031-.12-1.943.69 1.308 1.605z"/><path fill="#A7B2BF" d="M560.441 20.6l-1.933 3.5 1.531-3.694-3.941.67 3.842-1.105-2.982-2.664 3.26 2.315.223-3.992.223 3.992 3.26-2.315-2.982 2.664 3.843 1.106-3.942-.671 1.531 3.693z"/><path fill="#979797" d="M560.741 20.797l-.4 2.12-.147-2.14-1.807 1.04 1.492-1.506-1.852-.825 2.008.264-.503-2.068 1.011 1.833 1.225-1.753-.747 2.023 2.031-.12-1.942.69 1.307 1.605z"/><path fill="#A7B2BF" d="M487.083 50.51l-1.933 3.5 1.531-3.694-3.942.67 3.843-1.105-2.982-2.664 3.26 2.315.223-3.992.223 3.992 3.26-2.315-2.982 2.664 3.843 1.105-3.942-.67 1.531 3.693z"/><path fill="#979797" d="M487.383 50.707l-.4 2.12-.147-2.14-1.807 1.039 1.492-1.505-1.852-.825 2.008.263-.503-2.067 1.011 1.833 1.225-1.753-.747 2.023 2.031-.12-1.943.69 1.308 1.605z"/><path fill="#A7B2BF" d="M504.083 31.01l-1.933 3.5 1.531-3.694-3.942.67 3.843-1.105-2.982-2.664 3.26 2.315.223-3.992.223 3.992 3.26-2.315-2.982 2.664 3.843 1.105-3.942-.67 1.531 3.693z"/><path fill="#979797" d="M504.383 31.207l-.4 2.12-.147-2.14-1.807 1.039 1.492-1.505-1.852-.825 2.008.263-.503-2.067 1.011 1.833 1.225-1.753-.747 2.023 2.031-.12-1.943.69 1.308 1.605z"/><path fill="#A7B2BF" d="M503.863 55.679l-5.279 9.558 4.182-10.087-10.764 1.833 10.493-3.02-8.144-7.273 8.903 6.32.61-10.901.608 10.902 8.903-6.321-8.143 7.273 10.493 3.02-10.764-1.833 4.181 10.087z"/><path fill="#979797" d="M504.682 56.218l-1.094 5.79-.4-5.843-4.935 2.837 4.076-4.11-5.059-2.252 5.484.719-1.374-5.647 2.762 5.007 3.346-4.788-2.04 5.524 5.546-.325-5.306 1.882 3.57 4.384z"/><path d="M452.5 35.952l30.088 10.676M516.588 52.132L555.946 24M551.5 20.59l-42.912 9.038M494.67 30.5l-42.67 2" stroke="#D9E6EC" stroke-linecap="round" stroke-linejoin="round"/></g><g><path d="M27.332 10.554h23.882c7.92 0 11.88 0 16.143 1.347a16.756 16.756 0 0 1 10.015 10.015C78.72 26.18 78.72 30.14 78.72 38.06V61.94c0 7.92 0 11.88-1.348 16.143a16.753 16.753 0 0 1-10.015 10.014c-4.263 1.348-8.223 1.348-16.143 1.348H27.332c-7.92 0-11.88 0-16.143-1.348A16.753 16.753 0 0 1 1.175 78.084C-.173 73.82-.173 69.86-.173 61.94V38.06c0-7.92 0-11.88 1.348-16.143a16.756 16.756 0 0 1 10.014-10.015c4.263-1.347 8.223-1.347 16.143-1.347" fill="#B4B4B4"/><path d="M-.173 60.835c11.138-3.8 24.75-6.035 39.446-6.035 14.697 0 28.309 2.234 39.447 6.035v1.106c0 7.92 0 11.88-1.348 16.143a16.753 16.753 0 0 1-10.015 10.014c-4.263 1.348-8.223 1.348-16.143 1.348H27.332c-7.92 0-11.88 0-16.143-1.348A16.753 16.753 0 0 1 1.175 78.084C-.173 73.82-.173 69.86-.173 61.94v-1.106z" fill="#979797"/><path d="M28.711 2.916H51.11c7.427 0 11.14 0 15.139 1.264a15.714 15.714 0 0 1 9.392 9.392c1.264 3.998 1.264 7.712 1.264 15.14v22.397c0 7.427 0 11.14-1.264 15.139a15.711 15.711 0 0 1-9.392 9.391c-3.999 1.265-7.712 1.265-15.14 1.265H28.712c-7.428 0-11.141 0-15.139-1.265a15.711 15.711 0 0 1-9.392-9.391c-1.264-3.999-1.264-7.712-1.264-15.14V28.712c0-7.427 0-11.141 1.264-15.139a15.714 15.714 0 0 1 9.392-9.392c3.998-1.264 7.711-1.264 15.14-1.264" fill="url(#b)" transform="translate(-.637 10.09)"/><path d="M76.267 60.096V61.2c0 7.427 0 11.14-1.264 15.139a15.711 15.711 0 0 1-9.392 9.391c-3.998 1.265-7.711 1.265-15.14 1.265H28.076c-7.428 0-11.142 0-15.14-1.265a15.711 15.711 0 0 1-9.392-9.391C2.28 72.339 2.28 68.626 2.28 61.198v-1.102c10.348-3.674 23.144-5.846 36.994-5.846 13.85 0 26.646 2.172 36.994 5.846z" fill="#000"/><path d="M21.931 69.023a74.615 74.615 0 0 1-3.705-10.072c-4.951-17.31 3.717-31.345 19.365-31.369v8.247c-11.449.022-19.6 9.65-18.212 21.525.552 4.724 2.176 9.093 4.477 12.643a3.539 3.539 0 0 1 1.068 2.537c0 1.964-1.6 3.557-3.573 3.557a3.565 3.565 0 0 1-3.572-3.557 3.565 3.565 0 0 1 4.152-3.511zM56.756 68.996a74.615 74.615 0 0 0 3.705-10.072c4.952-17.31-3.717-31.345-19.364-31.369v8.247c11.448.022 19.599 9.65 18.211 21.525-.552 4.724-2.175 9.093-4.477 12.643a3.539 3.539 0 0 0-1.068 2.537c0 1.964 1.6 3.557 3.573 3.557a3.565 3.565 0 0 0 3.573-3.557 3.565 3.565 0 0 0-4.153-3.51z" fill="#FFF"/><g fill="#1CCDF8"><path d="M38.742 23.19h1.137v57.24h-1.137z"/><path d="M39.35 17.53l2.315 7.519s-1.527-1.455-2.314-1.455c-.756 0-2.314 1.455-2.314 1.455l2.314-7.519zM38.343 65.554v9.782l-2.76 4.081v-9.782zM40.285 65.554v9.782l2.76 4.081v-9.782z"/></g></g></g></svg>

<svg class="only-on-palm" width="100%" viewBox="0 0 340 100" xmlns="http://www.w3.org/2000/svg"><defs><linearGradient x1="56.021%" y1="0%" x2="43.956%" y2="0%" id="a"><stop stop-color="#FFF" offset="0%"/><stop stop-color="#AFAFAF" offset="28.163%"/><stop stop-color="#C8C8C8" offset="73.819%"/><stop stop-color="#FFF" offset="100%"/></linearGradient><linearGradient x1="50%" y1="0%" x2="50%" y2="100%" id="b"><stop offset="0%"/><stop stop-color="#868585" offset="100%"/></linearGradient></defs><g fill="none" fill-rule="evenodd"><circle stroke="url(#a)" stroke-width=".5" cx="194.93" cy="1246" r="1172"/><path fill="#A7B2BF" d="M119.837 50.962l-3.652 6.61 2.892-6.976-7.445 1.267 7.258-2.088-5.633-5.031 6.158 4.372.422-7.54.42 7.54 6.16-4.372-5.634 5.03 7.258 2.09-7.445-1.268 2.892 6.977z"/><path fill="#979797" d="M120.403 51.335l-.757 4.005-.277-4.042-3.413 1.962 2.82-2.843-3.5-1.558 3.793.498-.95-3.906 1.91 3.463 2.315-3.312-1.411 3.821 3.836-.224-3.67 1.302 2.47 3.032z"/><path fill="#A7B2BF" d="M199.538 59.462l-3.651 6.61 2.892-6.976-7.445 1.267 7.258-2.088-5.633-5.031 6.158 4.372.421-7.54.421 7.54 6.159-4.372-5.633 5.03 7.258 2.09-7.446-1.268 2.892 6.977z"/><path fill="#979797" d="M200.105 59.835l-.757 4.005-.277-4.042-3.414 1.962 2.82-2.843-3.5-1.558 3.794.498-.95-3.906 1.91 3.463 2.314-3.312-1.41 3.821 3.835-.224L200.8 59l2.47 3.032z"/><path fill="#A7B2BF" d="M199.542 33.1l-1.933 3.5 1.532-3.694-3.942.67 3.842-1.105-2.982-2.664 3.26 2.315.223-3.992.223 3.992 3.26-2.315-2.981 2.664 3.842 1.106-3.942-.671 1.532 3.693z"/><path fill="#979797" d="M199.842 33.297l-.4 2.12-.147-2.14-1.807 1.04 1.493-1.506-1.853-.825 2.008.264-.503-2.068 1.012 1.833 1.225-1.753-.747 2.023 2.03-.12-1.942.69 1.307 1.605z"/><path fill="#A7B2BF" d="M145.901 20.6l-1.933 3.5 1.531-3.694-3.941.67 3.842-1.105-2.982-2.664 3.26 2.315.223-3.992.223 3.992 3.26-2.315-2.982 2.664 3.843 1.106-3.942-.671 1.531 3.693z"/><path fill="#979797" d="M146.201 20.797l-.4 2.12-.147-2.14-1.807 1.04 1.492-1.506-1.852-.825 2.008.264-.503-2.068 1.011 1.833 1.225-1.753-.747 2.023 2.031-.12-1.942.69 1.307 1.605z"/><g><path fill="#A7B2BF" d="M170.71 25.769l-5.28 9.558 4.182-10.087-10.764 1.833 10.493-3.02-8.144-7.273 8.903 6.32.61-10.901.608 10.902 8.903-6.321-8.143 7.273 10.493 3.02-10.764-1.833 4.181 10.087z"/><path fill="#979797" d="M171.528 26.308l-1.094 5.79-.4-5.843-4.935 2.837 4.076-4.11-5.059-2.252 5.484.719-1.374-5.646 2.762 5.006 3.346-4.788-2.04 5.524 5.546-.325-5.306 1.882 3.57 4.384z"/></g><path d="M126.196 40.862l15.21-16.322M179.903 33.04l15.144 19.092" stroke="#D9E6EC" stroke-linecap="round" stroke-linejoin="round"/><g><path fill="#A7B2BF" d="M231.173 20.142l3.651 6.611-2.892-6.977 7.446 1.268-7.258-2.09 5.632-5.03-6.158 4.372-.421-7.54-.421 7.54-6.159-4.372 5.633 5.03-7.258 2.09 7.446-1.268-2.892 6.977z"/><path fill="#979797" d="M230.606 20.515l.757 4.005.277-4.042 3.414 1.962-2.82-2.842 3.5-1.558-3.794.497.95-3.906-1.91 3.463-2.314-3.311 1.41 3.82-3.835-.224 3.67 1.302-2.47 3.032z"/><path fill="#A7B2BF" d="M297.396 36.6l1.933 3.5-1.532-3.694 3.942.67-3.842-1.105 2.982-2.664-3.26 2.315-.223-3.992-.223 3.992-3.26-2.315 2.981 2.664-3.842 1.106 3.942-.671-1.532 3.693z"/><path fill="#979797" d="M297.096 36.797l.4 2.12.147-2.14 1.807 1.04-1.493-1.506 1.853-.825-2.008.264.503-2.068-1.012 1.833-1.225-1.753.747 2.023-2.03-.12 1.942.69-1.307 1.605z"/><path fill="#A7B2BF" d="M257.505 19.69l1.933 3.5-1.531-3.694 3.942.67-3.843-1.105 2.982-2.664-3.26 2.315-.223-3.992-.223 3.992-3.26-2.315 2.982 2.664-3.843 1.106 3.942-.671-1.531 3.693z"/><path fill="#979797" d="M257.205 19.887l.4 2.12.147-2.14 1.807 1.04-1.492-1.506 1.852-.825-2.008.264.503-2.068-1.011 1.833-1.225-1.753.747 2.023-2.031-.119 1.943.69-1.308 1.604z"/><path fill="#A7B2BF" d="M322.896 15.19l1.933 3.5-1.532-3.694 3.942.67-3.842-1.105 2.982-2.664-3.26 2.315-.223-3.992-.223 3.992-3.26-2.315 2.981 2.664-3.842 1.106 3.942-.671-1.532 3.693z"/><path fill="#979797" d="M322.596 15.387l.4 2.12.147-2.14 1.807 1.04-1.493-1.506 1.853-.825-2.008.264.503-2.068-1.012 1.833-1.225-1.753.747 2.023-2.03-.119 1.942.69-1.307 1.604z"/><g><path fill="#A7B2BF" d="M306.115 54.269l5.28 9.558-4.182-10.087 10.764 1.833-10.493-3.02 8.144-7.273-8.904 6.32-.609-10.901-.609 10.902-8.903-6.321 8.144 7.273-10.493 3.02 10.764-1.833-4.181 10.087z"/><path fill="#979797" d="M305.296 54.808l1.094 5.79.401-5.843 4.935 2.837-4.077-4.11 5.06-2.252-5.484.719 1.374-5.646-2.762 5.006-3.346-4.788 2.04 5.524-5.546-.325 5.305 1.882-3.57 4.384z"/></g><path d="M292.89 46.5l-53.302-20.97M293.39 53.165L215.5 57.5" stroke="#D9E6EC" stroke-linecap="round" stroke-linejoin="round"/></g><g><path d="M27.969 10.554H51.85c7.92 0 11.88 0 16.143 1.347a16.756 16.756 0 0 1 10.015 10.015c1.347 4.263 1.347 8.223 1.347 16.143V61.94c0 7.92 0 11.88-1.347 16.143a16.753 16.753 0 0 1-10.015 10.014c-4.264 1.348-8.223 1.348-16.143 1.348H27.969c-7.92 0-11.88 0-16.143-1.348A16.753 16.753 0 0 1 1.811 78.084C.464 73.82.464 69.86.464 61.94V38.06c0-7.92 0-11.88 1.347-16.143a16.756 16.756 0 0 1 10.015-10.015c4.263-1.347 8.223-1.347 16.143-1.347" fill="#B4B4B4"/><path d="M.464 60.835C11.6 57.035 25.214 54.8 39.91 54.8c14.697 0 28.308 2.234 39.446 6.035v1.106c0 7.92 0 11.88-1.347 16.143a16.753 16.753 0 0 1-10.015 10.014c-4.264 1.348-8.223 1.348-16.143 1.348H27.969c-7.92 0-11.88 0-16.143-1.348A16.753 16.753 0 0 1 1.811 78.084C.464 73.82.464 69.86.464 61.94v-1.106z" fill="#979797"/><path d="M28.711 2.916H51.11c7.427 0 11.14 0 15.139 1.264a15.714 15.714 0 0 1 9.392 9.392c1.264 3.998 1.264 7.712 1.264 15.14v22.397c0 7.427 0 11.14-1.264 15.139a15.711 15.711 0 0 1-9.392 9.391c-3.999 1.265-7.712 1.265-15.14 1.265H28.712c-7.428 0-11.141 0-15.139-1.265a15.711 15.711 0 0 1-9.392-9.391c-1.264-3.999-1.264-7.712-1.264-15.14V28.712c0-7.427 0-11.141 1.264-15.139a15.714 15.714 0 0 1 9.392-9.392c3.998-1.264 7.711-1.264 15.14-1.264" fill="url(#b)" transform="translate(0 10.09)"/><path d="M76.904 60.096V61.2c0 7.427 0 11.14-1.264 15.139a15.711 15.711 0 0 1-9.392 9.391c-3.999 1.265-7.712 1.265-15.14 1.265H28.712c-7.428 0-11.141 0-15.139-1.265a15.711 15.711 0 0 1-9.392-9.391c-1.264-3.999-1.264-7.712-1.264-15.14v-1.102C13.264 56.422 26.06 54.25 39.91 54.25c13.85 0 26.646 2.172 36.994 5.846z" fill="#000"/><path d="M22.568 69.023a74.615 74.615 0 0 1-3.705-10.072c-4.952-17.31 3.717-31.345 19.364-31.369v8.247c-11.448.022-19.599 9.65-18.211 21.525.552 4.724 2.175 9.093 4.477 12.643a3.539 3.539 0 0 1 1.068 2.537c0 1.964-1.6 3.557-3.573 3.557a3.565 3.565 0 0 1-3.573-3.557 3.565 3.565 0 0 1 4.153-3.511zM57.393 68.996a74.615 74.615 0 0 0 3.705-10.072c4.951-17.31-3.717-31.345-19.365-31.369v8.247c11.449.022 19.6 9.65 18.212 21.525-.552 4.724-2.176 9.093-4.477 12.643a3.539 3.539 0 0 0-1.068 2.537c0 1.964 1.6 3.557 3.573 3.557a3.565 3.565 0 0 0 3.572-3.557 3.565 3.565 0 0 0-4.152-3.51z" fill="#FFF"/><g fill="#1CCDF8"><path d="M39.379 23.19h1.136v57.24H39.38z"/><path d="M39.988 17.53l2.314 7.519s-1.528-1.455-2.314-1.455c-.757 0-2.314 1.455-2.314 1.455l2.314-7.519zM38.98 65.554v9.782l-2.761 4.081v-9.782zM40.921 65.554v9.782l2.761 4.081v-9.782z"/></g></g></g></svg>